<svg width="24" height="16" viewBox="0 0 24 16" fill="none" xmlns="http://www.w3.org/2000/svg">
<path d="M23.7884 1.32861L16.5098 8.00006L23.7884 14.6715C23.92 14.4178 23.9998 14.1373 23.9998 13.8378V2.16229C23.9998 1.86275 23.92 1.58232 23.7884 1.32861Z" fill="white"/>
<path d="M21.8899 0.216309L2.10877 0.216309C1.78407 0.216309 1.48009 0.289951 1.20508 0.411334L10.508 8.95019C11.3305 9.70902 12.6681 9.70902 13.4907 8.95019L22.7936 0.411334C22.5185 0.289951 22.2146 0.216309 21.8899 0.216309Z" fill="white"/>
<path d="M0.211404 1.32861C0.0798275 1.58232 0 1.86275 0 2.16229L0 13.8378C0 14.1374 0.0798275 14.4178 0.211404 14.6715L7.49005 8.00006L0.211404 1.32861Z" fill="white"/>
<path d="M15.5149 8.91748L14.4849 9.86765C13.1144 11.132 10.8842 11.132 9.51365 9.86765L8.48372 8.91748L1.20508 15.5889C1.48009 15.7103 1.78407 15.7839 2.10877 15.7839L21.8899 15.7839C22.2146 15.7839 22.5185 15.7103 22.7936 15.5889L15.5149 8.91748Z" fill="white"/>
</svg>
